<svg width="576" height="690" viewBox="0 0 576 690" fill="none" xmlns="http://www.w3.org/2000/svg" role="img" aria-labelledby="title desc">
  <title id="title">JATMN GitHub activity metrics</title>
  <desc id="desc">Current GitHub contribution totals and daily contribution line charts. Repository names shown are public-only.</desc>
  <style>
    text { font-family: Arial, sans-serif; }
    .canvas { fill: #ffffff; }
    .frame { fill: none; stroke: #d0d7de; }
    .chart-card { fill: #ffffff; stroke: #d0d7de; }
    .subtle-card { fill: #f6f8fa; stroke: #d0d7de; }
    .stat-shell { fill: #ffffff; stroke: #d0d7de; }
    .stat-label-band { fill: #f6f8fa; }
    .stat-value-band { fill: #ddf4ff; }
    .stat-value-text { fill: #0969da; }
    .fg { fill: #24292f; }
    .muted { fill: #57606a; }
    .rule { stroke: #d8dee4; }
    .chart-area { fill: #ddf4ff; }
    .chart-line { stroke: #0969da; }
    @media (prefers-color-scheme: dark) {
      .canvas { fill: #0d1117; }
      .frame { stroke: #30363d; }
      .chart-card { fill: #0d1117; stroke: #30363d; }
      .subtle-card { fill: #161b22; stroke: #30363d; }
      .stat-shell { fill: #0d1117; stroke: #30363d; }
      .stat-label-band { fill: #161b22; }
      .stat-value-band { fill: #0d419d; fill-opacity: 0.24; }
      .stat-value-text { fill: #58a6ff; }
      .fg { fill: #c9d1d9; }
      .muted { fill: #8b949e; }
      .rule { stroke: #30363d; }
      .chart-area { fill: #0d419d; fill-opacity: 0.22; }
      .chart-line { stroke: #58a6ff; }
    }
  </style>
  <rect class="canvas" width="576" height="690" rx="6"/>
  <rect class="frame" x="0.5" y="0.5" width="575" height="689" rx="5.5"/>
  <text class="fg" x="24" y="36" font-size="16" font-weight="600">GitHub activity</text>
  <text class="muted" x="24" y="61" font-size="12">Updated Sep 2, 2026 · public repo details only</text>
  <g transform="translate(433 22)">
    <rect class="subtle-card" width="119" height="28" rx="14"/>
    <text class="muted" x="60" y="19" text-anchor="middle" font-size="12">23 public repos</text>
  </g>
  
        <g transform="translate(24 88)">
          <rect class="stat-shell" width="252" height="58" rx="6"/>
          <rect class="stat-label-band" x="1" y="1" width="151" height="26" rx="5"/>
          <path class="stat-label-band" d="M146 1H152V27H146Z"/>
          <rect class="stat-value-band" x="152" y="1" width="99" height="26" rx="5"/>
          <path class="stat-value-band" d="M152 1H158V27H152Z"/>
          <text class="muted" x="16" y="18" font-size="12" font-weight="600">commits</text>
          <text class="stat-value-text" x="236" y="19" text-anchor="end" font-size="13" font-weight="700">602</text>
          <line class="rule" x1="1" y1="32" x2="251" y2="32"/>
          <text class="muted" x="16" y="48" font-size="11">last 30 days</text>
          <text class="fg" x="236" y="49" text-anchor="end" font-size="12" font-weight="600">236</text>
        </g>
        <g transform="translate(300 88)">
          <rect class="stat-shell" width="252" height="58" rx="6"/>
          <rect class="stat-label-band" x="1" y="1" width="151" height="26" rx="5"/>
          <path class="stat-label-band" d="M146 1H152V27H146Z"/>
          <rect class="stat-value-band" x="152" y="1" width="99" height="26" rx="5"/>
          <path class="stat-value-band" d="M152 1H158V27H152Z"/>
          <text class="muted" x="16" y="18" font-size="12" font-weight="600">prs opened</text>
          <text class="stat-value-text" x="236" y="19" text-anchor="end" font-size="13" font-weight="700">243</text>
          <line class="rule" x1="1" y1="32" x2="251" y2="32"/>
          <text class="muted" x="16" y="48" font-size="11">last 30 days</text>
          <text class="fg" x="236" y="49" text-anchor="end" font-size="12" font-weight="600">102</text>
        </g>
        <g transform="translate(24 158)">
          <rect class="stat-shell" width="252" height="58" rx="6"/>
          <rect class="stat-label-band" x="1" y="1" width="151" height="26" rx="5"/>
          <path class="stat-label-band" d="M146 1H152V27H146Z"/>
          <rect class="stat-value-band" x="152" y="1" width="99" height="26" rx="5"/>
          <path class="stat-value-band" d="M152 1H158V27H152Z"/>
          <text class="muted" x="16" y="18" font-size="12" font-weight="600">pr reviews</text>
          <text class="stat-value-text" x="236" y="19" text-anchor="end" font-size="13" font-weight="700">879</text>
          <line class="rule" x1="1" y1="32" x2="251" y2="32"/>
          <text class="muted" x="16" y="48" font-size="11">last 30 days</text>
          <text class="fg" x="236" y="49" text-anchor="end" font-size="12" font-weight="600">197</text>
        </g>
        <g transform="translate(300 158)">
          <rect class="stat-shell" width="252" height="58" rx="6"/>
          <rect class="stat-label-band" x="1" y="1" width="151" height="26" rx="5"/>
          <path class="stat-label-band" d="M146 1H152V27H146Z"/>
          <rect class="stat-value-band" x="152" y="1" width="99" height="26" rx="5"/>
          <path class="stat-value-band" d="M152 1H158V27H152Z"/>
          <text class="muted" x="16" y="18" font-size="12" font-weight="600">repos contributed</text>
          <text class="stat-value-text" x="236" y="19" text-anchor="end" font-size="13" font-weight="700">14</text>
          <line class="rule" x1="1" y1="32" x2="251" y2="32"/>
          <text class="muted" x="16" y="48" font-size="11">last 30 days</text>
          <text class="fg" x="236" y="49" text-anchor="end" font-size="12" font-weight="600">4</text>
        </g>
  
  <g transform="translate(24 240)">
    <rect class="chart-card" width="528" height="152" rx="6"/>
    <text class="fg" x="12" y="19" font-size="13" font-weight="600">Daily contributions, last 60 days</text>
    <text class="muted" x="516" y="19" text-anchor="end" font-size="12">1,171 total · 23 today</text>
    
    <line class="rule" x1="42" y1="30" x2="512" y2="30"/>
    <text class="muted" x="34" y="34" text-anchor="end" font-size="10">57</text>
    <line class="rule" x1="42" y1="75" x2="512" y2="75"/>
    <text class="muted" x="34" y="79" text-anchor="end" font-size="10">29</text>
    <line class="rule" x1="42" y1="120" x2="512" y2="120"/>
    <text class="muted" x="34" y="124" text-anchor="end" font-size="10">0</text>
    <polygon class="chart-area" points="42,120 42,66.32 49.97,86.84 57.93,45.79 65.9,30 73.86,80.53 81.83,88.42 89.8,105.79 97.76,94.74 105.73,101.05 113.69,102.63 121.66,75.79 129.63,91.58 137.59,86.84 145.56,82.11 153.53,116.84 161.49,101.05 169.46,102.63 177.42,66.32 185.39,104.21 193.36,118.42 201.32,88.42 209.29,85.26 217.25,115.26 225.22,99.47 233.19,99.47 241.15,107.37 249.12,108.95 257.08,107.37 265.05,113.68 273.02,120 280.98,110.53 288.95,94.74 296.92,53.68 304.88,110.53 312.85,120 320.81,107.37 328.78,104.21 336.75,69.47 344.71,86.84 352.68,94.74 360.64,77.37 368.61,72.63 376.58,67.89 384.54,120 392.51,86.84 400.47,110.53 408.44,96.32 416.41,33.16 424.37,78.95 432.34,71.05 440.31,99.47 448.27,88.42 456.24,99.47 464.2,69.47 472.17,48.95 480.14,112.11 488.1,67.89 496.07,69.47 504.03,52.11 512,83.68 512,120"/>
    <polyline class="chart-line" points="42,66.32 49.97,86.84 57.93,45.79 65.9,30 73.86,80.53 81.83,88.42 89.8,105.79 97.76,94.74 105.73,101.05 113.69,102.63 121.66,75.79 129.63,91.58 137.59,86.84 145.56,82.11 153.53,116.84 161.49,101.05 169.46,102.63 177.42,66.32 185.39,104.21 193.36,118.42 201.32,88.42 209.29,85.26 217.25,115.26 225.22,99.47 233.19,99.47 241.15,107.37 249.12,108.95 257.08,107.37 265.05,113.68 273.02,120 280.98,110.53 288.95,94.74 296.92,53.68 304.88,110.53 312.85,120 320.81,107.37 328.78,104.21 336.75,69.47 344.71,86.84 352.68,94.74 360.64,77.37 368.61,72.63 376.58,67.89 384.54,120 392.51,86.84 400.47,110.53 408.44,96.32 416.41,33.16 424.37,78.95 432.34,71.05 440.31,99.47 448.27,88.42 456.24,99.47 464.2,69.47 472.17,48.95 480.14,112.11 488.1,67.89 496.07,69.47 504.03,52.11 512,83.68" fill="none" stroke-width="2" stroke-linecap="round" stroke-linejoin="round"/>
    <text class="muted" x="42" y="142" text-anchor="middle" font-size="10">7/5</text><text class="muted" x="273.02" y="142" text-anchor="middle" font-size="10">8/3</text><text class="muted" x="512" y="142" text-anchor="middle" font-size="10">9/2</text>
  </g>
  <g transform="translate(24 416)">
    <rect class="chart-card" width="528" height="152" rx="6"/>
    <text class="fg" x="12" y="19" font-size="13" font-weight="600">Daily contributions, last 7 days</text>
    <text class="muted" x="516" y="19" text-anchor="end" font-size="12">213 total · 23 today</text>
    
    <line class="rule" x1="42" y1="30" x2="512" y2="30"/>
    <text class="muted" x="34" y="34" text-anchor="end" font-size="10">45</text>
    <line class="rule" x1="42" y1="75" x2="512" y2="75"/>
    <text class="muted" x="34" y="79" text-anchor="end" font-size="10">23</text>
    <line class="rule" x1="42" y1="120" x2="512" y2="120"/>
    <text class="muted" x="34" y="124" text-anchor="end" font-size="10">0</text>
    <polygon class="chart-area" points="42,120 42,56 120.33,30 198.67,110 277,54 355.33,56 433.67,34 512,74 512,120"/>
    <polyline class="chart-line" points="42,56 120.33,30 198.67,110 277,54 355.33,56 433.67,34 512,74" fill="none" stroke-width="2" stroke-linecap="round" stroke-linejoin="round"/>
    <text class="muted" x="42" y="142" text-anchor="middle" font-size="10">8/27</text><text class="muted" x="120.33" y="142" text-anchor="middle" font-size="10">8/28</text><text class="muted" x="198.67" y="142" text-anchor="middle" font-size="10">8/29</text><text class="muted" x="277" y="142" text-anchor="middle" font-size="10">8/30</text><text class="muted" x="355.33" y="142" text-anchor="middle" font-size="10">8/31</text><text class="muted" x="433.67" y="142" text-anchor="middle" font-size="10">9/1</text><text class="muted" x="512" y="142" text-anchor="middle" font-size="10">9/2</text>
  </g>
  <line class="rule" x1="24" y1="644" x2="552" y2="644"/>
  <text class="muted" x="24" y="667" font-size="12">Recent public work: Gitlawb/openclaude (TypeScript) · Gitlawb/zero (Go) · jatmn/Deneb (C)</text>
</svg>
