<svg width="576" height="690" viewBox="0 0 576 690" fill="none" xmlns="http://www.w3.org/2000/svg" role="img" aria-labelledby="title desc">
  <title id="title">JATMN GitHub activity metrics</title>
  <desc id="desc">Current GitHub contribution totals and daily contribution line charts. Repository names shown are public-only.</desc>
  <style>
    text { font-family: Arial, sans-serif; }
    .canvas { fill: #ffffff; }
    .frame { fill: none; stroke: #d0d7de; }
    .chart-card { fill: #ffffff; stroke: #d0d7de; }
    .subtle-card { fill: #f6f8fa; stroke: #d0d7de; }
    .stat-shell { fill: #ffffff; stroke: #d0d7de; }
    .stat-label-band { fill: #f6f8fa; }
    .stat-value-band { fill: #ddf4ff; }
    .stat-value-text { fill: #0969da; }
    .fg { fill: #24292f; }
    .muted { fill: #57606a; }
    .rule { stroke: #d8dee4; }
    .chart-area { fill: #ddf4ff; }
    .chart-line { stroke: #0969da; }
    @media (prefers-color-scheme: dark) {
      .canvas { fill: #0d1117; }
      .frame { stroke: #30363d; }
      .chart-card { fill: #0d1117; stroke: #30363d; }
      .subtle-card { fill: #161b22; stroke: #30363d; }
      .stat-shell { fill: #0d1117; stroke: #30363d; }
      .stat-label-band { fill: #161b22; }
      .stat-value-band { fill: #0d419d; fill-opacity: 0.24; }
      .stat-value-text { fill: #58a6ff; }
      .fg { fill: #c9d1d9; }
      .muted { fill: #8b949e; }
      .rule { stroke: #30363d; }
      .chart-area { fill: #0d419d; fill-opacity: 0.22; }
      .chart-line { stroke: #58a6ff; }
    }
  </style>
  <rect class="canvas" width="576" height="690" rx="6"/>
  <rect class="frame" x="0.5" y="0.5" width="575" height="689" rx="5.5"/>
  <text class="fg" x="24" y="36" font-size="16" font-weight="600">GitHub activity</text>
  <text class="muted" x="24" y="61" font-size="12">Updated Aug 22, 2026 · public repo details only</text>
  <g transform="translate(433 22)">
    <rect class="subtle-card" width="119" height="28" rx="14"/>
    <text class="muted" x="60" y="19" text-anchor="middle" font-size="12">22 public repos</text>
  </g>
  
        <g transform="translate(24 88)">
          <rect class="stat-shell" width="252" height="58" rx="6"/>
          <rect class="stat-label-band" x="1" y="1" width="151" height="26" rx="5"/>
          <path class="stat-label-band" d="M146 1H152V27H146Z"/>
          <rect class="stat-value-band" x="152" y="1" width="99" height="26" rx="5"/>
          <path class="stat-value-band" d="M152 1H158V27H152Z"/>
          <text class="muted" x="16" y="18" font-size="12" font-weight="600">commits</text>
          <text class="stat-value-text" x="236" y="19" text-anchor="end" font-size="13" font-weight="700">420</text>
          <line class="rule" x1="1" y1="32" x2="251" y2="32"/>
          <text class="muted" x="16" y="48" font-size="11">last 30 days</text>
          <text class="fg" x="236" y="49" text-anchor="end" font-size="12" font-weight="600">70</text>
        </g>
        <g transform="translate(300 88)">
          <rect class="stat-shell" width="252" height="58" rx="6"/>
          <rect class="stat-label-band" x="1" y="1" width="151" height="26" rx="5"/>
          <path class="stat-label-band" d="M146 1H152V27H146Z"/>
          <rect class="stat-value-band" x="152" y="1" width="99" height="26" rx="5"/>
          <path class="stat-value-band" d="M152 1H158V27H152Z"/>
          <text class="muted" x="16" y="18" font-size="12" font-weight="600">prs opened</text>
          <text class="stat-value-text" x="236" y="19" text-anchor="end" font-size="13" font-weight="700">206</text>
          <line class="rule" x1="1" y1="32" x2="251" y2="32"/>
          <text class="muted" x="16" y="48" font-size="11">last 30 days</text>
          <text class="fg" x="236" y="49" text-anchor="end" font-size="12" font-weight="600">80</text>
        </g>
        <g transform="translate(24 158)">
          <rect class="stat-shell" width="252" height="58" rx="6"/>
          <rect class="stat-label-band" x="1" y="1" width="151" height="26" rx="5"/>
          <path class="stat-label-band" d="M146 1H152V27H146Z"/>
          <rect class="stat-value-band" x="152" y="1" width="99" height="26" rx="5"/>
          <path class="stat-value-band" d="M152 1H158V27H152Z"/>
          <text class="muted" x="16" y="18" font-size="12" font-weight="600">pr reviews</text>
          <text class="stat-value-text" x="236" y="19" text-anchor="end" font-size="13" font-weight="700">796</text>
          <line class="rule" x1="1" y1="32" x2="251" y2="32"/>
          <text class="muted" x="16" y="48" font-size="11">last 30 days</text>
          <text class="fg" x="236" y="49" text-anchor="end" font-size="12" font-weight="600">165</text>
        </g>
        <g transform="translate(300 158)">
          <rect class="stat-shell" width="252" height="58" rx="6"/>
          <rect class="stat-label-band" x="1" y="1" width="151" height="26" rx="5"/>
          <path class="stat-label-band" d="M146 1H152V27H146Z"/>
          <rect class="stat-value-band" x="152" y="1" width="99" height="26" rx="5"/>
          <path class="stat-value-band" d="M152 1H158V27H152Z"/>
          <text class="muted" x="16" y="18" font-size="12" font-weight="600">repos contributed</text>
          <text class="stat-value-text" x="236" y="19" text-anchor="end" font-size="13" font-weight="700">13</text>
          <line class="rule" x1="1" y1="32" x2="251" y2="32"/>
          <text class="muted" x="16" y="48" font-size="11">last 30 days</text>
          <text class="fg" x="236" y="49" text-anchor="end" font-size="12" font-weight="600">2</text>
        </g>
  
  <g transform="translate(24 240)">
    <rect class="chart-card" width="528" height="152" rx="6"/>
    <text class="fg" x="12" y="19" font-size="13" font-weight="600">Daily contributions, last 60 days</text>
    <text class="muted" x="516" y="19" text-anchor="end" font-size="12">1,067 total · 1 today</text>
    
    <line class="rule" x1="42" y1="30" x2="512" y2="30"/>
    <text class="muted" x="34" y="34" text-anchor="end" font-size="10">58</text>
    <line class="rule" x1="42" y1="75" x2="512" y2="75"/>
    <text class="muted" x="34" y="79" text-anchor="end" font-size="10">29</text>
    <line class="rule" x1="42" y1="120" x2="512" y2="120"/>
    <text class="muted" x="34" y="124" text-anchor="end" font-size="10">0</text>
    <polygon class="chart-area" points="42,120 42,79.66 49.97,90.52 57.93,93.62 65.9,93.62 73.86,95.17 81.83,92.07 89.8,106.03 97.76,81.21 105.73,106.03 113.69,99.83 121.66,47.07 129.63,67.24 137.59,87.41 145.56,47.07 153.53,31.55 161.49,81.21 169.46,88.97 177.42,106.03 185.39,95.17 193.36,101.38 201.32,102.93 209.29,76.55 217.25,92.07 225.22,87.41 233.19,82.76 241.15,116.9 249.12,101.38 257.08,102.93 265.05,67.24 273.02,104.48 280.98,118.45 288.95,88.97 296.92,84.31 304.88,113.79 312.85,96.72 320.81,99.83 328.78,107.59 336.75,109.14 344.71,107.59 352.68,113.79 360.64,120 368.61,110.69 376.58,101.38 384.54,50.17 392.51,110.69 400.47,120 408.44,104.48 416.41,101.38 424.37,71.9 432.34,88.97 440.31,96.72 448.27,79.66 456.24,81.21 464.2,81.21 472.17,120 480.14,87.41 488.1,107.59 496.07,96.72 504.03,30 512,118.45 512,120"/>
    <polyline class="chart-line" points="42,79.66 49.97,90.52 57.93,93.62 65.9,93.62 73.86,95.17 81.83,92.07 89.8,106.03 97.76,81.21 105.73,106.03 113.69,99.83 121.66,47.07 129.63,67.24 137.59,87.41 145.56,47.07 153.53,31.55 161.49,81.21 169.46,88.97 177.42,106.03 185.39,95.17 193.36,101.38 201.32,102.93 209.29,76.55 217.25,92.07 225.22,87.41 233.19,82.76 241.15,116.9 249.12,101.38 257.08,102.93 265.05,67.24 273.02,104.48 280.98,118.45 288.95,88.97 296.92,84.31 304.88,113.79 312.85,96.72 320.81,99.83 328.78,107.59 336.75,109.14 344.71,107.59 352.68,113.79 360.64,120 368.61,110.69 376.58,101.38 384.54,50.17 392.51,110.69 400.47,120 408.44,104.48 416.41,101.38 424.37,71.9 432.34,88.97 440.31,96.72 448.27,79.66 456.24,81.21 464.2,81.21 472.17,120 480.14,87.41 488.1,107.59 496.07,96.72 504.03,30 512,118.45" fill="none" stroke-width="2" stroke-linecap="round" stroke-linejoin="round"/>
    <text class="muted" x="42" y="142" text-anchor="middle" font-size="10">6/24</text><text class="muted" x="273.02" y="142" text-anchor="middle" font-size="10">7/23</text><text class="muted" x="512" y="142" text-anchor="middle" font-size="10">8/22</text>
  </g>
  <g transform="translate(24 416)">
    <rect class="chart-card" width="528" height="152" rx="6"/>
    <text class="fg" x="12" y="19" font-size="13" font-weight="600">Daily contributions, last 7 days</text>
    <text class="muted" x="516" y="19" text-anchor="end" font-size="12">128 total · 1 today</text>
    
    <line class="rule" x1="42" y1="30" x2="512" y2="30"/>
    <text class="muted" x="34" y="34" text-anchor="end" font-size="10">58</text>
    <line class="rule" x1="42" y1="75" x2="512" y2="75"/>
    <text class="muted" x="34" y="79" text-anchor="end" font-size="10">29</text>
    <line class="rule" x1="42" y1="120" x2="512" y2="120"/>
    <text class="muted" x="34" y="124" text-anchor="end" font-size="10">0</text>
    <polygon class="chart-area" points="42,120 42,81.21 120.33,120 198.67,87.41 277,107.59 355.33,96.72 433.67,30 512,118.45 512,120"/>
    <polyline class="chart-line" points="42,81.21 120.33,120 198.67,87.41 277,107.59 355.33,96.72 433.67,30 512,118.45" fill="none" stroke-width="2" stroke-linecap="round" stroke-linejoin="round"/>
    <text class="muted" x="42" y="142" text-anchor="middle" font-size="10">8/16</text><text class="muted" x="120.33" y="142" text-anchor="middle" font-size="10">8/17</text><text class="muted" x="198.67" y="142" text-anchor="middle" font-size="10">8/18</text><text class="muted" x="277" y="142" text-anchor="middle" font-size="10">8/19</text><text class="muted" x="355.33" y="142" text-anchor="middle" font-size="10">8/20</text><text class="muted" x="433.67" y="142" text-anchor="middle" font-size="10">8/21</text><text class="muted" x="512" y="142" text-anchor="middle" font-size="10">8/22</text>
  </g>
  <line class="rule" x1="24" y1="644" x2="552" y2="644"/>
  <text class="muted" x="24" y="667" font-size="12">Recent public work: Gitlawb/openclaude (TypeScript) · Gitlawb/zero (Go) · jatmn/Codex-warp (Rust)</text>
</svg>
