<svg width="576" height="690" viewBox="0 0 576 690" fill="none" xmlns="http://www.w3.org/2000/svg" role="img" aria-labelledby="title desc">
  <title id="title">JATMN GitHub activity metrics</title>
  <desc id="desc">Current GitHub contribution totals and daily contribution line charts. Repository names shown are public-only.</desc>
  <style>
    text { font-family: Arial, sans-serif; }
    .canvas { fill: #ffffff; }
    .frame { fill: none; stroke: #d0d7de; }
    .chart-card { fill: #ffffff; stroke: #d0d7de; }
    .subtle-card { fill: #f6f8fa; stroke: #d0d7de; }
    .stat-shell { fill: #ffffff; stroke: #d0d7de; }
    .stat-label-band { fill: #f6f8fa; }
    .stat-value-band { fill: #ddf4ff; }
    .stat-value-text { fill: #0969da; }
    .fg { fill: #24292f; }
    .muted { fill: #57606a; }
    .rule { stroke: #d8dee4; }
    .chart-area { fill: #ddf4ff; }
    .chart-line { stroke: #0969da; }
    @media (prefers-color-scheme: dark) {
      .canvas { fill: #0d1117; }
      .frame { stroke: #30363d; }
      .chart-card { fill: #0d1117; stroke: #30363d; }
      .subtle-card { fill: #161b22; stroke: #30363d; }
      .stat-shell { fill: #0d1117; stroke: #30363d; }
      .stat-label-band { fill: #161b22; }
      .stat-value-band { fill: #0d419d; fill-opacity: 0.24; }
      .stat-value-text { fill: #58a6ff; }
      .fg { fill: #c9d1d9; }
      .muted { fill: #8b949e; }
      .rule { stroke: #30363d; }
      .chart-area { fill: #0d419d; fill-opacity: 0.22; }
      .chart-line { stroke: #58a6ff; }
    }
  </style>
  <rect class="canvas" width="576" height="690" rx="6"/>
  <rect class="frame" x="0.5" y="0.5" width="575" height="689" rx="5.5"/>
  <text class="fg" x="24" y="36" font-size="16" font-weight="600">GitHub activity</text>
  <text class="muted" x="24" y="61" font-size="12">Updated Jul 9, 2026 · public repo details only</text>
  <g transform="translate(433 22)">
    <rect class="subtle-card" width="119" height="28" rx="14"/>
    <text class="muted" x="60" y="19" text-anchor="middle" font-size="12">18 public repos</text>
  </g>
  
        <g transform="translate(24 88)">
          <rect class="stat-shell" width="252" height="58" rx="6"/>
          <rect class="stat-label-band" x="1" y="1" width="151" height="26" rx="5"/>
          <path class="stat-label-band" d="M146 1H152V27H146Z"/>
          <rect class="stat-value-band" x="152" y="1" width="99" height="26" rx="5"/>
          <path class="stat-value-band" d="M152 1H158V27H152Z"/>
          <text class="muted" x="16" y="18" font-size="12" font-weight="600">commits</text>
          <text class="stat-value-text" x="236" y="19" text-anchor="end" font-size="13" font-weight="700">108</text>
          <line class="rule" x1="1" y1="32" x2="251" y2="32"/>
          <text class="muted" x="16" y="48" font-size="11">last 30 days</text>
          <text class="fg" x="236" y="49" text-anchor="end" font-size="12" font-weight="600">57</text>
        </g>
        <g transform="translate(300 88)">
          <rect class="stat-shell" width="252" height="58" rx="6"/>
          <rect class="stat-label-band" x="1" y="1" width="151" height="26" rx="5"/>
          <path class="stat-label-band" d="M146 1H152V27H146Z"/>
          <rect class="stat-value-band" x="152" y="1" width="99" height="26" rx="5"/>
          <path class="stat-value-band" d="M152 1H158V27H152Z"/>
          <text class="muted" x="16" y="18" font-size="12" font-weight="600">prs opened</text>
          <text class="stat-value-text" x="236" y="19" text-anchor="end" font-size="13" font-weight="700">91</text>
          <line class="rule" x1="1" y1="32" x2="251" y2="32"/>
          <text class="muted" x="16" y="48" font-size="11">last 30 days</text>
          <text class="fg" x="236" y="49" text-anchor="end" font-size="12" font-weight="600">47</text>
        </g>
        <g transform="translate(24 158)">
          <rect class="stat-shell" width="252" height="58" rx="6"/>
          <rect class="stat-label-band" x="1" y="1" width="151" height="26" rx="5"/>
          <path class="stat-label-band" d="M146 1H152V27H146Z"/>
          <rect class="stat-value-band" x="152" y="1" width="99" height="26" rx="5"/>
          <path class="stat-value-band" d="M152 1H158V27H152Z"/>
          <text class="muted" x="16" y="18" font-size="12" font-weight="600">pr reviews</text>
          <text class="stat-value-text" x="236" y="19" text-anchor="end" font-size="13" font-weight="700">550</text>
          <line class="rule" x1="1" y1="32" x2="251" y2="32"/>
          <text class="muted" x="16" y="48" font-size="11">last 30 days</text>
          <text class="fg" x="236" y="49" text-anchor="end" font-size="12" font-weight="600">311</text>
        </g>
        <g transform="translate(300 158)">
          <rect class="stat-shell" width="252" height="58" rx="6"/>
          <rect class="stat-label-band" x="1" y="1" width="151" height="26" rx="5"/>
          <path class="stat-label-band" d="M146 1H152V27H146Z"/>
          <rect class="stat-value-band" x="152" y="1" width="99" height="26" rx="5"/>
          <path class="stat-value-band" d="M152 1H158V27H152Z"/>
          <text class="muted" x="16" y="18" font-size="12" font-weight="600">repos contributed</text>
          <text class="stat-value-text" x="236" y="19" text-anchor="end" font-size="13" font-weight="700">12</text>
          <line class="rule" x1="1" y1="32" x2="251" y2="32"/>
          <text class="muted" x="16" y="48" font-size="11">last 30 days</text>
          <text class="fg" x="236" y="49" text-anchor="end" font-size="12" font-weight="600">3</text>
        </g>
  
  <g transform="translate(24 240)">
    <rect class="chart-card" width="528" height="152" rx="6"/>
    <text class="fg" x="12" y="19" font-size="13" font-weight="600">Daily contributions, last 60 days</text>
    <text class="muted" x="516" y="19" text-anchor="end" font-size="12">1,169 total · 9 today</text>
    
    <line class="rule" x1="42" y1="30" x2="512" y2="30"/>
    <text class="muted" x="34" y="34" text-anchor="end" font-size="10">65</text>
    <line class="rule" x1="42" y1="75" x2="512" y2="75"/>
    <text class="muted" x="34" y="79" text-anchor="end" font-size="10">33</text>
    <line class="rule" x1="42" y1="120" x2="512" y2="120"/>
    <text class="muted" x="34" y="124" text-anchor="end" font-size="10">0</text>
    <polygon class="chart-area" points="42,120 42,113.08 49.97,107.54 57.93,43.85 65.9,102 73.86,107.54 81.83,92.31 89.8,113.08 97.76,114.46 105.73,88.15 113.69,95.08 121.66,102 129.63,103.38 137.59,90.92 145.56,99.23 153.53,88.15 161.49,104.77 169.46,103.38 177.42,117.23 185.39,113.08 193.36,85.38 201.32,85.38 209.29,89.54 217.25,88.15 225.22,100.62 233.19,90.92 241.15,99.23 249.12,102 257.08,71.54 265.05,93.69 273.02,38.31 280.98,86.77 288.95,102 296.92,110.31 304.88,71.54 312.85,102 320.81,106.15 328.78,78.46 336.75,99.23 344.71,72.92 352.68,117.23 360.64,115.85 368.61,103.38 376.58,97.85 384.54,111.69 392.51,82.62 400.47,93.69 408.44,96.46 416.41,96.46 424.37,97.85 432.34,95.08 440.31,107.54 448.27,84 456.24,107.54 464.2,102 472.17,54.92 480.14,70.15 488.1,86.77 496.07,49.38 504.03,30 512,107.54 512,120"/>
    <polyline class="chart-line" points="42,113.08 49.97,107.54 57.93,43.85 65.9,102 73.86,107.54 81.83,92.31 89.8,113.08 97.76,114.46 105.73,88.15 113.69,95.08 121.66,102 129.63,103.38 137.59,90.92 145.56,99.23 153.53,88.15 161.49,104.77 169.46,103.38 177.42,117.23 185.39,113.08 193.36,85.38 201.32,85.38 209.29,89.54 217.25,88.15 225.22,100.62 233.19,90.92 241.15,99.23 249.12,102 257.08,71.54 265.05,93.69 273.02,38.31 280.98,86.77 288.95,102 296.92,110.31 304.88,71.54 312.85,102 320.81,106.15 328.78,78.46 336.75,99.23 344.71,72.92 352.68,117.23 360.64,115.85 368.61,103.38 376.58,97.85 384.54,111.69 392.51,82.62 400.47,93.69 408.44,96.46 416.41,96.46 424.37,97.85 432.34,95.08 440.31,107.54 448.27,84 456.24,107.54 464.2,102 472.17,54.92 480.14,70.15 488.1,86.77 496.07,49.38 504.03,30 512,107.54" fill="none" stroke-width="2" stroke-linecap="round" stroke-linejoin="round"/>
    <text class="muted" x="42" y="142" text-anchor="middle" font-size="10">5/11</text><text class="muted" x="273.02" y="142" text-anchor="middle" font-size="10">6/9</text><text class="muted" x="512" y="142" text-anchor="middle" font-size="10">7/9</text>
  </g>
  <g transform="translate(24 416)">
    <rect class="chart-card" width="528" height="152" rx="6"/>
    <text class="fg" x="12" y="19" font-size="13" font-weight="600">Daily contributions, last 7 days</text>
    <text class="muted" x="516" y="19" text-anchor="end" font-size="12">245 total · 9 today</text>
    
    <line class="rule" x1="42" y1="30" x2="512" y2="30"/>
    <text class="muted" x="34" y="34" text-anchor="end" font-size="10">65</text>
    <line class="rule" x1="42" y1="75" x2="512" y2="75"/>
    <text class="muted" x="34" y="79" text-anchor="end" font-size="10">33</text>
    <line class="rule" x1="42" y1="120" x2="512" y2="120"/>
    <text class="muted" x="34" y="124" text-anchor="end" font-size="10">0</text>
    <polygon class="chart-area" points="42,120 42,102 120.33,54.92 198.67,70.15 277,86.77 355.33,49.38 433.67,30 512,107.54 512,120"/>
    <polyline class="chart-line" points="42,102 120.33,54.92 198.67,70.15 277,86.77 355.33,49.38 433.67,30 512,107.54" fill="none" stroke-width="2" stroke-linecap="round" stroke-linejoin="round"/>
    <text class="muted" x="42" y="142" text-anchor="middle" font-size="10">7/3</text><text class="muted" x="120.33" y="142" text-anchor="middle" font-size="10">7/4</text><text class="muted" x="198.67" y="142" text-anchor="middle" font-size="10">7/5</text><text class="muted" x="277" y="142" text-anchor="middle" font-size="10">7/6</text><text class="muted" x="355.33" y="142" text-anchor="middle" font-size="10">7/7</text><text class="muted" x="433.67" y="142" text-anchor="middle" font-size="10">7/8</text><text class="muted" x="512" y="142" text-anchor="middle" font-size="10">7/9</text>
  </g>
  <line class="rule" x1="24" y1="644" x2="552" y2="644"/>
  <text class="muted" x="24" y="667" font-size="12">Recent public work: Gitlawb/openclaude (TypeScript) · Gitlawb/zero (Go) · hicap-oss/openclaude (TypeScript)</text>
</svg>
